<svg width="32" height="32" viewBox="0 0 32 32" xmlns="http://www.w3.org/2000/svg">
    <defs>
        <linearGradient id="layerOrange" x1="0%" y1="0%" x2="100%" y2="100%">
            <stop offset="0%" style="stop-color:#FFEB3B" />
            <stop offset="50%" style="stop-color:#FF9800" />
            <stop offset="100%" style="stop-color:#E65100" />
        </linearGradient>
        <linearGradient id="earthBrown" x1="0%" y1="0%" x2="0%" y2="100%">
            <stop offset="0%" style="stop-color:#A1887F" />
            <stop offset="100%" style="stop-color:#5D4037" />
        </linearGradient>
        <linearGradient id="gearSilver" x1="0%" y1="0%" x2="0%" y2="100%">
            <stop offset="0%" style="stop-color:#ECEFF1" />
            <stop offset="100%" style="stop-color:#90A4AE" />
        </linearGradient>
        <filter id="shadow" x="-20%" y="-20%" width="140%" height="140%">
            <feGaussianBlur in="SourceAlpha" stdDeviation="0.5"/>
            <feOffset dx="1" dy="1"/>
            <feMerge><feMergeNode/><feMergeNode in="SourceGraphic"/></feMerge>
        </filter>
    </defs>

    <g filter="url(#shadow)" stroke="#3E2723" stroke-width="1" stroke-linejoin="round">
        <path d="M16 3 L28 9 L16 15 L4 9 Z" fill="url(#layerOrange)"/>
        
        <path d="M4 9 L16 15 L28 9 L28 23 L16 29 L4 23 Z" fill="url(#earthBrown)"/>
        
        <path d="M4 14 L16 20 L28 14" fill="none" stroke-opacity="0.6"/>
        <path d="M4 19 L16 25 L28 19" fill="none" stroke-opacity="0.6"/>
        
        <path d="M16 15 L16 29" fill="none"/>
        <path d="M4 9 L4 23" fill="none"/>
        <path d="M28 9 L28 23" fill="none"/>
    </g>

    <g transform="translate(18, 6)" filter="url(#shadow)">
        <circle cx="7" cy="7" r="6" fill="url(#gearSilver)" stroke="#455A64" stroke-width="1"/>
        <path d="M7 0 L9 0 L8 2 L6 2 Z" fill="#B0BEC5" stroke="none"/>
        <path d="M14 7 L14 9 L12 8 L12 6 Z" fill="#B0BEC5" stroke="none"/>
        <path d="M7 14 L5 14 L6 12 L8 12 Z" fill="#B0BEC5" stroke="none"/>
        <path d="M0 7 L0 5 L2 6 L2 8 Z" fill="#B0BEC5" stroke="none"/>
        <circle cx="7" cy="7" r="2.5" fill="#546E7A" stroke="none"/>
    </g>
</svg>
