<svg width="32" height="32" viewBox="0 0 32 32" xmlns="http://www.w3.org/2000/svg">
    <defs>
        <linearGradient id="greenGrad" x1="0%" y1="0%" x2="0%" y2="100%">
            <stop offset="0%" style="stop-color:#69F0AE" />
            <stop offset="100%" style="stop-color:#00C853" />
        </linearGradient>
        <filter id="shadow" x="-20%" y="-20%" width="140%" height="140%">
            <feGaussianBlur in="SourceAlpha" stdDeviation="0.5"/>
            <feOffset dx="1" dy="1"/>
            <feMerge><feMergeNode/><feMergeNode in="SourceGraphic"/></feMerge>
        </filter>
    </defs>

    <g filter="url(#shadow)" stroke="#3E2723" stroke-width="1" stroke-linejoin="round">
        <!-- 3D块体结构 - 更大尺寸，无背景 -->
        <path d="M4 2 L20 2 L28 10 L16 18 L0 10 Z" fill="#FFEB3B"/>
        <path d="M0 10 L16 18 L28 10 L28 26 L16 34 L0 26 Z" fill="#A1887F"/>
        <path d="M0 18 L16 26 L28 18" fill="none" stroke-opacity="0.6"/>
        <path d="M16 18 L16 34" fill="none"/>
        <path d="M0 10 L0 26" fill="none"/>
        <path d="M28 10 L28 26" fill="none"/>
    </g>

    <g transform="translate(22, 6)" filter="url(#shadow)">
        <path d="M-3 0 L6 0 M2 -4 L6 0 L2 4" stroke="#00C853" stroke-width="4" stroke-linecap="round" stroke-linejoin="round"/>
    </g>
</svg>
