<svg width="32" height="32" viewBox="0 0 32 32" xmlns="http://www.w3.org/2000/svg">
    <defs>
        <linearGradient id="greenGrad" x1="0%" y1="0%" x2="0%" y2="100%">
            <stop offset="0%" style="stop-color:#69F0AE;stop-opacity:1" />
            <stop offset="100%" style="stop-color:#00C853;stop-opacity:1" />
        </linearGradient>
        <filter id="shadow" x="-20%" y="-20%" width="140%" height="140%">
            <feGaussianBlur in="SourceAlpha" stdDeviation="0.5"/>
            <feOffset dx="1" dy="1"/>
            <feMerge><feMergeNode/><feMergeNode in="SourceGraphic"/></feMerge>
        </filter>
    </defs>

    <g filter="url(#shadow)" stroke="#455A64" stroke-width="1" stroke-linejoin="round">
        <path d="M6 4 L18 4 L24 10 L24 28 L6 28 Z" fill="#FFFFFF"/>
        <path d="M18 4 L18 10 L24 10" fill="#CFD8DC" stroke="none"/>
        <path d="M18 4 L24 10" fill="none" stroke="#455A64" stroke-width="1"/>
        
        <path d="M6 14 Q10 12, 15 14 T24 14 L24 18 Q19 16, 15 18 T6 18 Z" 
              fill="#90CAF9" stroke="none"/>
        <path d="M6 18 Q10 16, 15 18 T24 18 L24 22 Q19 20, 15 22 T6 22 Z" 
              fill="#FFCC80" stroke="none"/>
        <path d="M6 14 Q10 12, 15 14 T24 14" fill="none" stroke="#455A64" stroke-width="0.5"/>
        <path d="M6 18 Q10 16, 15 18 T24 18" fill="none" stroke="#455A64" stroke-width="0.5"/>
        <path d="M6 22 Q10 20, 15 22 T24 22" fill="none" stroke="#455A64" stroke-width="0.5"/>
    </g>

    <g transform="translate(0, 2)" filter="url(#shadow)">
        <path d="M10 12 L16 18 L22 12 L19 12 L19 6 L13 6 L13 12 Z" 
              fill="url(#greenGrad)" stroke="#1B5E20" stroke-width="1" stroke-linejoin="round"/>
    </g>
</svg>
