<svg width="32" height="32" viewBox="0 0 32 32" xmlns="http://www.w3.org/2000/svg">
    <defs>
        <filter id="shadow" x="-20%" y="-20%" width="140%" height="140%">
            <feGaussianBlur in="SourceAlpha" stdDeviation="0.5"/>
            <feOffset dx="1" dy="1"/>
            <feMerge><feMergeNode/><feMergeNode in="SourceGraphic"/></feMerge>
        </filter>
    </defs>

    <g filter="url(#shadow)" stroke="#5D4037" stroke-width="1">
        <rect x="4" y="4" width="20" height="24" fill="white"/>
        <path d="M4 4 H24 V10 Q14 14 4 10 Z" fill="#FFE0B2" stroke="none"/>
        <path d="M4 10 Q14 14 24 10 V18 Q14 22 4 18 Z" fill="#D7CCC8" stroke="none"/>
        <path d="M4 18 Q14 22 24 18 V28 H4 Z" fill="#8D6E63" stroke="none"/>
        <path d="M4 10 Q14 14 24 10" fill="none"/>
        <path d="M4 18 Q14 22 24 18" fill="none"/>
        <rect x="4" y="4" width="20" height="24" fill="none"/>
    </g>

    <g transform="translate(18, 6)" filter="url(#shadow)">
        <circle cx="7" cy="7" r="6" fill="#B0BEC5" stroke="#455A64" stroke-width="1"/>
        <path d="M7 0 L9 0 L9 2 L7 2 Z" transform="rotate(0, 7, 7)" fill="#90A4AE" stroke="#455A64" stroke-width="1"/>
        <path d="M7 0 L9 0 L9 2 L7 2 Z" transform="rotate(45, 7, 7)" fill="#90A4AE" stroke="#455A64" stroke-width="1"/>
        <path d="M7 0 L9 0 L9 2 L7 2 Z" transform="rotate(90, 7, 7)" fill="#90A4AE" stroke="#455A64" stroke-width="1"/>
        <path d="M7 0 L9 0 L9 2 L7 2 Z" transform="rotate(135, 7, 7)" fill="#90A4AE" stroke="#455A64" stroke-width="1"/>
        <path d="M7 0 L9 0 L9 2 L7 2 Z" transform="rotate(180, 7, 7)" fill="#90A4AE" stroke="#455A64" stroke-width="1"/>
        <path d="M7 0 L9 0 L9 2 L7 2 Z" transform="rotate(225, 7, 7)" fill="#90A4AE" stroke="#455A64" stroke-width="1"/>
        <path d="M7 0 L9 0 L9 2 L7 2 Z" transform="rotate(270, 7, 7)" fill="#90A4AE" stroke="#455A64" stroke-width="1"/>
        <path d="M7 0 L9 0 L9 2 L7 2 Z" transform="rotate(315, 7, 7)" fill="#90A4AE" stroke="#455A64" stroke-width="1"/>
        <circle cx="7" cy="7" r="2.5" fill="#546E7A" stroke="none"/>
    </g>
</svg>
