<svg width="32" height="32" viewBox="0 0 32 32" xmlns="http://www.w3.org/2000/svg">
    <defs>
        <linearGradient id="layerOrange" x1="0%" y1="0%" x2="100%" y2="100%">
            <stop offset="0%" style="stop-color:#FFEB3B" />
            <stop offset="50%" style="stop-color:#FF9800" />
            <stop offset="100%" style="stop-color:#E65100" />
        </linearGradient>
        <linearGradient id="gearSilver" x1="0%" y1="0%" x2="0%" y2="100%">
            <stop offset="0%" style="stop-color:#ECEFF1" />
            <stop offset="100%" style="stop-color:#90A4AE" />
        </linearGradient>
        <filter id="shadow" x="-20%" y="-20%" width="140%" height="140%">
            <feGaussianBlur in="SourceAlpha" stdDeviation="0.5"/>
            <feOffset dx="1" dy="1"/>
            <feMerge><feMergeNode/><feMergeNode in="SourceGraphic"/></feMerge>
        </filter>
    </defs>

    <g filter="url(#shadow)">
        <path d="M2 26 L10 16 L26 16 L18 26 Z" 
              fill="url(#layerOrange)" stroke="#5D4037" stroke-width="1"/>
    </g>

    <g transform="translate(16, 14)" filter="url(#shadow)">
        <circle cx="0" cy="0" r="7" fill="url(#gearSilver)" stroke="#455A64" stroke-width="1"/>
        <path d="M-2 -9 L2 -9 L3 -6 L-3 -6 Z" fill="#CFD8DC" stroke="#455A64" stroke-width="0.5"/>
        <path d="M-2 9 L2 9 L3 6 L-3 6 Z" fill="#CFD8DC" stroke="#455A64" stroke-width="0.5"/>
        <path d="M-9 -2 L-9 2 L-6 3 L-6 -3 Z" fill="#CFD8DC" stroke="#455A64" stroke-width="0.5"/>
        <path d="M9 -2 L9 2 L6 3 L6 -3 Z" fill="#CFD8DC" stroke="#455A64" stroke-width="0.5"/>
        <circle cx="0" cy="0" r="3" fill="none" stroke="#455A64" stroke-width="1"/>
    </g>
</svg>
